Coordinates
version=1
nRows=21
nColumns=27
inDegrees=yes

Units are S.I. units (second, meters, Newtons, ...)
If the header above contains a line with 'inDegrees', this indicates whether rotational values are in degrees (yes) or radians (no).

endheader
time	pelvis_rotation	pelvis_tilt	pelvis_list	pelvis_tx	pelvis_ty	pelvis_tz	hip_flexion_r	hip_adduction_r	hip_rotation_r	knee_angle_r	knee_rotation_r	knee_adduction_r	knee_angle_r_beta	ankle_angle_r	subtalar_angle_r	mtp_angle_r	hip_flexion_l	hip_adduction_l	hip_rotation_l	knee_angle_l	knee_rotation_l	knee_adduction_l	knee_angle_l_beta	ankle_angle_l	subtalar_angle_l	mtp_angle_l
      5.38000000	      7.05061057	    -40.22624934	      6.46580266	     -0.05420318	      0.61301816	     -1.14723618	    112.01843474	    -43.16561145	     -1.63933640	     82.57398956	     -9.50207696	      9.65613846	      1.44118799	     10.14832832	      7.24079330	      0.00000000	    105.91090742	    -34.24248728	    -10.68363220	     75.94102538	     -8.87781362	     -9.75680513	      1.32542093	      5.37674116	     19.03252378	      0.00000000
      5.38500000	      7.09113043	    -40.19365901	      6.48198504	     -0.05395941	      0.61530784	     -1.14747527	    111.54445781	    -43.24858738	     -1.97833016	     82.15203748	     -9.48367292	      9.65593790	      1.43382354	     10.07732198	      7.38970249	      0.00000000	    105.47246878	    -34.15984671	    -10.90516865	     75.54590231	     -8.79552140	     -9.75565627	      1.31852473	      5.30305428	     19.07770726	      0.00000000
      5.39000000	      7.04900846	    -40.17145604	      6.50652157	     -0.05370707	      0.61749828	     -1.14769025	    111.12994329	    -43.22537072	     -2.23341260	     81.74796091	     -9.46275668	      9.65580455	      1.42677107	      9.99039514	      7.51008361	      0.00000000	    105.01362871	    -34.17984854	    -11.18557918	     75.16314857	     -8.71691114	     -9.75444407	      1.31184442	      5.24648175	     19.15996436	      0.00000000
      5.39500000	      6.54286731	    -40.24908555	      6.57778444	     -0.05398543	      0.61892635	     -1.14767404	    111.14421910	    -42.59131639	     -1.59884044	     81.49317999	     -9.01031894	      9.36544236	      1.42232431	      9.84507395	      7.55903013	      0.00000000	    104.53630426	    -34.77118158	    -11.20005301	     74.94341320	     -8.05799207	     -9.54807540	      1.30800931	      5.20227075	     19.17886935	      0.00000000
      5.40000000	      7.08798505	    -40.06168983	      6.53360451	     -0.05302962	      0.62183117	     -1.14818484	    110.17166335	    -43.35916796	     -2.86671808	     80.93660541	     -9.42139573	      9.65994449	      1.41261025	      9.80547914	      7.75987085	      0.00000000	    104.10618172	    -34.07845716	    -11.62278804	     74.42546933	     -8.52824115	     -9.75421945	      1.29896949	      5.10819088	     19.26509827	      0.00000000
      5.40500000	      6.64690423	    -40.26120001	      6.15754580	     -0.05338871	      0.62303988	     -1.14818669	    109.84786037	    -42.95867092	     -2.86500222	     80.66305294	     -8.95870245	      9.37296573	      1.40783586	      9.72117398	      7.87189506	      0.00000000	    104.22957274	    -34.47585724	    -10.87432318	     74.31963745	     -7.79713810	     -9.54138949	      1.29712237	      5.03757974	     19.19841626	      0.00000000
      5.41000000	      7.12153305	    -40.02790874	      6.25871060	     -0.05221221	      0.62588102	     -1.14867233	    108.98457921	    -43.59593684	     -3.91470602	     80.14152966	     -9.38296228	      9.66189362	      1.39873356	      9.70444423	      8.08619255	      0.00000000	    103.58391607	    -33.93625439	    -11.56357500	     73.79754233	     -8.27827315	     -9.75153458	      1.28801009	      4.97414856	     19.37705083	      0.00000000
      5.41500000	      6.63114635	    -40.13712601	      6.46856111	     -0.05248159	      0.62706937	     -1.14867369	    109.25521520	    -42.92412188	     -2.95330250	     79.95278145	     -8.87522165	      9.37354091	      1.39543928	      9.54834742	      8.08415498	      0.00000000	    103.05543630	    -34.55442545	    -11.74631638	     73.59601930	     -7.61560039	     -9.54333768	      1.28449285	      4.95674428	     19.35465023	      0.00000000
      5.42000000	      7.08048938	    -39.83493924	      6.48952087	     -0.05131075	      0.62974774	     -1.14918076	    108.27397397	    -43.56626027	     -4.10515462	     79.43815598	     -9.32678450	      9.66568566	      1.38645737	      9.49838081	      8.31549460	      0.00000000	    102.43476320	    -34.01092063	    -12.30482947	     73.11741848	     -8.07713123	     -9.75292069	      1.27613969	      4.89697146	     19.52516764	      0.00000000
      5.42500000	      6.53595888	    -40.06490722	      6.37869113	     -0.05157492	      0.63086457	     -1.14914745	    108.32439946	    -42.93345923	     -3.55946301	     79.22229656	     -8.80545762	      9.37840094	      1.38268992	      9.43337874	      8.31359412	      0.00000000	    102.30013336	    -34.61484869	    -12.02373995	     72.99292069	     -7.36264661	     -9.54235904	      1.27396680	      4.86540606	     19.49969307	      0.00000000
      5.43000000	      7.04950640	    -39.73761452	      6.29647084	     -0.05030638	      0.63346559	     -1.14961987	    107.17437721	    -43.67747582	     -4.92406551	     78.71380210	     -9.27231165	      9.66603388	      1.37381501	      9.44191485	      8.57657711	      0.00000000	    101.77770360	    -33.98722971	    -12.36071541	     72.52915734	     -7.79664431	     -9.75164063	      1.26587260	      4.80681326	     19.68606934	      0.00000000
      5.43500000	      6.89388185	    -39.63334235	      6.62041108	     -0.04977963	      0.63526204	     -1.14987306	    107.12619771	    -43.44379982	     -4.56894648	     78.41393395	     -9.22706711	      9.66703462	      1.36858133	      9.26912367	      8.61420740	      0.00000000	    100.96236461	    -34.22554648	    -13.13750747	     72.18886764	     -7.71971219	     -9.75374185	      1.25993342	      4.80012121	     19.81795709	      0.00000000
      5.44000000	      6.95156405	    -39.56744324	      6.57271232	     -0.04919368	      0.63704511	     -1.15014514	    106.60375162	    -43.57615350	     -4.94070290	     78.07113872	     -9.19620313	      9.67122170	      1.36259842	      9.21933733	      8.76857646	      0.00000000	    100.61997755	    -34.14292278	    -13.16333324	     71.90686810	     -7.56867129	     -9.75259178	      1.25501160	      4.75900694	     19.82780529	      0.00000000
      5.44500000	      6.57990878	    -39.75234974	      6.33749325	     -0.04934780	      0.63800360	     -1.15014492	    106.44756067	    -43.20649952	     -4.62995373	     77.87881472	     -8.62995364	      9.38619012	      1.35924173	      9.17137356	      8.76389622	      0.00000000	    100.64770605	    -34.53282105	    -12.57168000	     71.82808857	     -6.85449574	     -9.53870485	      1.25363664	      4.72928881	     19.77287828	      0.00000000
      5.45000000	      6.96139111	    -39.43886233	      6.52226116	     -0.04799749	      0.64049617	     -1.15063815	    105.66897895	    -43.69149505	     -5.51451534	     77.41788893	     -9.12457902	      9.67151941	      1.35119706	      9.10833735	      8.99570833	      0.00000000	     99.85775608	    -34.11457648	    -13.33775993	     71.35669783	     -7.25867570	     -9.75168182	      1.24540932	      4.70953571	     19.93085611	      0.00000000
      5.45500000	      6.71244044	    -39.69504029	      6.18552260	     -0.04817266	      0.64142026	     -1.15068302	    105.43713588	    -43.48668339	     -5.41782001	     77.21266057	     -8.54200815	      9.39454845	      1.34761515	      9.05072801	      9.02687611	      0.00000000	    100.12961772	    -34.33850231	    -12.48963203	     71.30539871	     -6.55693495	     -9.53533240	      1.24451398	      4.63222627	     19.80437297	      0.00000000
      5.46000000	      7.01931005	    -39.37083464	      6.35032634	     -0.04673724	      0.64397264	     -1.15117191	    104.62726003	    -43.89092008	     -6.32069881	     76.73022465	     -9.05247055	      9.67641909	      1.33919506	      8.94671453	      9.25085991	      0.00000000	     99.29380900	    -33.99693722	    -13.28393744	     70.83473354	     -6.94608945	     -9.75082869	      1.23629932	      4.65083456	     19.94091413	      0.00000000
      5.46500000	      6.93940039	    -39.26310466	      6.52699929	     -0.04602648	      0.64561863	     -1.15143348	    104.38872339	    -43.80520319	     -6.19951615	     76.44962176	     -8.98786794	      9.67610786	      1.33429761	      8.89903916	      9.35439972	      0.00000000	     98.65064950	    -34.11638906	    -13.73363344	     70.54568409	     -6.81331527	     -9.75180691	      1.23125446	      4.63481119	     20.07534647	      0.00000000
      5.47000000	      6.48075813	    -39.45816487	      6.42762520	     -0.04613612	      0.64655263	     -1.15147891	    104.43841006	    -43.30428670	     -5.52913417	     76.28188825	     -8.34331216	      9.39978280	      1.33137011	      8.84118347	      9.28280708	      0.00000000	     98.52412537	    -34.59557692	    -13.46385197	     70.45126175	     -6.19037422	     -9.53506973	      1.22960648	      4.59184822	     20.00727064	      0.00000000
      5.47500000	      6.91944234	    -39.15040089	      6.40440298	     -0.04461297	      0.64900701	     -1.15195368	    103.38034237	    -43.90583809	     -6.86283536	     75.78224892	     -8.89893242	      9.67883379	      1.32264976	      8.79706844	      9.58815934	      0.00000000	     97.95761466	    -34.08223543	    -13.79941770	     70.02110810	     -6.50704323	     -9.74941406	      1.22209888	      4.57493970	     20.09456276	      0.00000000
      5.48000000	      6.92389658	    -39.09715679	      6.40998542	     -0.04386720	      0.65062962	     -1.15222802	    102.96799736	    -43.95862858	     -7.07526454	     75.48109884	     -8.83840726	      9.67880348	      1.31739370	      8.75166267	      9.70346236	      0.00000000	     97.57597998	    -34.06844582	    -13.89076881	     69.77207326	     -6.34056988	     -9.74932176	      1.21775240	      4.55892891	     20.11715931	      0.00000000
